# xmcd
#
# Track frame offsets:
#	150
#	16443
#	29349
#	43476
#	52420
#	61240
#	69655
#	84635
#	92867
#	101053
#
# Disc length: 1482 seconds
#
# Revision: 1
# Processed by: cddbd v1.5.2PL0 Copyright (c) Steve Scherf et al.
# Submitted via: EasyCDDAExtractor 2010.6.0.0
#
DISCID=9205c80a
DTITLE=제26회(2008)_MBC창작동요제
DYEAR=2008
DGENRE=
TTITLE0=즐거운 학교 행복한 학교 (연주곡)
TTITLE1=꿈꾸는 발레리나 (연주곡)
TTITLE2=별빛 가득한 밤 (연주곡)
TTITLE3=바람개비언덕 (연주곡)
TTITLE4=빗자루 여행 (연주곡)
TTITLE5=숲 속의 아침 (연주곡)
TTITLE6=어느 봄날 (연주곡)
TTITLE7=그네 타기 (연주곡)
TTITLE8=먼저 사과할 수 있어요 (연주곡)
TTITLE9=꿈의 나침반 (연주곡)
EXTD=
EXTT0=
EXTT1=
EXTT2=
EXTT3=
EXTT4=
EXTT5=
EXTT6=
EXTT7=
EXTT8=
EXTT9=
PLAYORDER=
